<svg xmlns="http://www.w3.org/2000/svg" fill="none" viewBox="0 0 24 24" id="Google-Ads--Streamline-Svg-Logos" height="24" width="24">
  <desc>
    Google Ads Streamline Icon: https://streamlinehq.com
  </desc>
  <path fill="#fbbc04" d="M0.7909875 16.744 8.598925 3.37695c0.9918 0.5839 5.992975 3.3517 6.8007 3.878025L7.5917 20.622825C6.73775 21.750875 -0.2908325 18.45595 0.7909875 16.7432v0.0008Z" stroke-width="0.25"></path>
  <path fill="#4285f4" d="m23.224275 16.7437 -7.807925 -13.36625c-1.09155 -1.81655 -3.442525 -2.4766725 -5.373425 -1.4037725 -1.9309 1.0728975 -2.51885 3.3841475 -1.4273 5.2817725l7.80795 13.367875c1.09155 1.81575 3.442525 2.475875 5.3734 1.402975 1.846575 -1.0729 2.51885 -3.46605 1.4273 -5.280975v-0.001625Z" stroke-width="0.25"></path>
  <path fill="#34a853" d="M4.169375 22.542975c2.1646 0 3.919375 -1.7112 3.919375 -3.82205 0 -2.110875 -1.754775 -3.82205 -3.919375 -3.82205C2.0047625 14.898875 0.25 16.61005 0.25 18.720925c0 2.11085 1.7547625 3.82205 3.919375 3.82205Z" stroke-width="0.25"></path>
</svg>