<svg xmlns="http://www.w3.org/2000/svg" fill="none" viewBox="0 0 24 24" id="Google-Data-Studio--Streamline-Svg-Logos" height="24" width="24">
  <desc>
    Google Data Studio Streamline Icon: https://streamlinehq.com
  </desc>
  <path fill="#669df6" d="M20.814425 16.965675H12.2812c-2.06365 0 -3.2193 1.444575 -3.2193 2.982 0 1.418775 0.980225 2.981975 3.2193 2.981975h8.533225V16.965675Z" stroke-width="0.25"></path>
  <path fill="#1a73e8" d="M20.814475 22.9245c1.62125 0 2.93555 -1.335075 2.93555 -2.981975 0 -1.646925 -1.3143 -2.982 -2.93555 -2.982 -1.621275 0 -2.935575 1.335075 -2.935575 2.982 0 1.6469 1.3143 2.981975 2.935575 2.981975Z" stroke-width="0.25"></path>
  <path fill="#669df6" d="M12.00255 9.015425h-8.53325C1.40565 9.015425 0.25 10.46 0.25 11.997425c0 1.418775 0.9802375 2.981975 3.2193 2.981975h8.53325V9.015425Z" stroke-width="0.25"></path>
  <path fill="#1a73e8" d="M12.002575 14.9794c1.62125 0 2.93555 -1.335075 2.93555 -2.981975 0 -1.6469 -1.3143 -2.982 -2.93555 -2.982 -1.621275 0 -2.93555 1.3351 -2.93555 2.982 0 1.6469 1.314275 2.981975 2.93555 2.981975Z" stroke-width="0.25"></path>
  <path fill="#669df6" d="M20.814425 1.0703425H12.2812c-2.06365 0 -3.2193 1.4445575 -3.2193 2.9819825 0 1.418775 0.980225 2.982 3.2193 2.982h8.533225V1.0703425Z" stroke-width="0.25"></path>
  <path fill="#1a73e8" d="M20.814475 7.034325c1.62125 0 2.93555 -1.335075 2.93555 -2.982 0 -1.6469 -1.3143 -2.9819825 -2.93555 -2.9819825 -1.621275 0 -2.935575 1.3350825 -2.935575 2.9819825 0 1.646925 1.3143 2.982 2.935575 2.982Z" stroke-width="0.25"></path>
</svg>