<svg xmlns="http://www.w3.org/2000/svg" fill="none" viewBox="0 0 24 24" id="Google-Tag-Manager--Streamline-Svg-Logos" height="24" width="24">
  <desc>
    Google Tag Manager Streamline Icon: https://streamlinehq.com
  </desc>
  <path fill="#8ab4f8" d="M14.04365 22.7873 9.9646 18.809725l8.7603 -8.9459 4.223275 4.13915 -8.904525 8.784325Z" stroke-width="0.25"></path>
  <path fill="#4285f4" d="M14.0611 5.201275 9.996725 1.0514525 1.1095725 9.854475c-1.1456085 1.145625 -1.1456085 3.0029 0 4.149825L9.8632 22.81535 14.00235 18.94325 7.332975 11.9294l6.728125 -6.728125Z" stroke-width="0.25"></path>
  <path fill="#8ab4f8" d="M22.889525 9.922575 14.07715 1.1102075c-1.14695 -1.1469435 -3.0069 -1.1469435 -4.153825 0 -1.14695 1.146945 -1.14695 3.0068925 0 4.1538425l8.812375 8.812375c1.14695 1.146925 3.006875 1.146925 4.153825 0 1.14695 -1.14695 1.14695 -3.0069 0 -4.15385Z" stroke-width="0.25"></path>
  <path fill="#246fdb" d="M11.9327 23.75c1.58545 0 2.8707 -1.28525 2.8707 -2.8707 0 -1.58545 -1.28525 -2.8707 -2.8707 -2.8707 -1.585425 0 -2.8707 1.28525 -2.8707 2.8707C9.062 22.46475 10.347275 23.75 11.9327 23.75Z" stroke-width="0.25"></path>
</svg>