<svg xmlns="http://www.w3.org/2000/svg" fill="none" viewBox="0 0 24 24" id="Wordpress--Streamline-Svg-Logos" height="24" width="24">
  <desc>
    Wordpress Streamline Icon: https://streamlinehq.com
  </desc>
  <path fill="#00749a" d="M13.879725 11.4326h-0.925075v0.098125c0.28935 0 0.335875 0.062025 0.335875 0.428975v0.661525c0 0.3669 -0.046475 0.4341 -0.335875 0.4341 -0.222175 -0.031 -0.3721 -0.149875 -0.5788 -0.377275l-0.2377 -0.258375c0.320375 -0.056925 0.4909 -0.2584 0.4909 -0.485825 0 -0.284175 -0.24285 -0.50125 -0.69765 -0.50125h-0.90955v0.098125c0.28935 0 0.335875 0.062025 0.335875 0.428975v0.661525c0 0.3669 -0.046525 0.4341 -0.335875 0.4341v0.098175h1.0284v-0.098175c-0.28935 0 -0.335875 -0.0672 -0.335875 -0.4341v-0.186h0.0878l0.573675 0.718275h1.503875c0.738975 0 1.0594 -0.392725 1.0594 -0.863075 0 -0.47025 -0.320375 -0.857825 -1.0594 -0.857825Zm-2.165325 0.8423v-0.68725h0.21185c0.232525 0 0.335925 0.1602 0.335925 0.346225 0 0.180925 -0.1034 0.341075 -0.335925 0.341075l-0.21185 -0.00005Zm2.18085 0.7184h-0.0362c-0.186 0 -0.21185 -0.046475 -0.21185 -0.284225v-1.121425h0.24805c0.53745 0 0.6356 0.392725 0.6356 0.69765 0 0.3152 -0.098175 0.708 -0.6356 0.708Zm-5.7518 -0.5271 0.3566 -1.054325c0.1034 -0.304875 0.056875 -0.3927 -0.273875 -0.3927v-0.1034h0.97155v0.1034c-0.32555 0 -0.40305 0.0775 -0.532275 0.454775l-0.589175 1.7674h-0.06715l-0.5272 -1.617575 -0.5374 1.617575h-0.0672l-0.573625 -1.7674c-0.124025 -0.377275 -0.2067 -0.454775 -0.50645 -0.454775v-0.1034h1.147275v0.1034c-0.30495 0 -0.387675 0.072325 -0.2791 0.3927l0.34625 1.054325 0.52195 -1.550425h0.098225l0.5116 1.550425Zm1.757025 0.75445c-0.56845 0 -1.033575 -0.418575 -1.033575 -0.93025 0 -0.506425 0.465175 -0.925075 1.033575 -0.925075 0.568475 0 1.03355 0.41865 1.03355 0.925075 0 0.511675 -0.465075 0.93025 -1.03355 0.93025Zm0 -1.695c-0.4754 0 -0.640825 0.428875 -0.640825 0.764775 0 0.34115 0.165425 0.7649 0.640825 0.7649 0.48065 0 0.646025 -0.42375 0.646025 -0.7649 0 -0.3359 -0.165375 -0.764775 -0.646025 -0.764775Z" stroke-width="0.25"></path>
  <path fill="#464342" d="M16.215425 13.050175v0.10335h-1.18345v-0.10335c0.346275 0 0.4083 -0.087825 0.4083 -0.604675v-0.826825c0 -0.51685 -0.062025 -0.5995 -0.4083 -0.5995v-0.1034h1.069725c0.532275 0 0.82695 0.2739 0.82695 0.6409 0 0.356575 -0.294675 0.635625 -0.82695 0.635625h-0.294575v0.25315c0 0.5169 0.062025 0.604725 0.4083 0.604725Zm-0.113725 -1.94835h-0.294575v0.89925h0.294575c0.28945 0 0.4238 -0.201525 0.4238 -0.4444 0 -0.24805 -0.13435 -0.45485 -0.4238 -0.45485Zm4.3772 1.56595 -0.02585 0.093c-0.046475 0.17055 -0.1034 0.232575 -0.470325 0.232575h-0.07235c-0.2687 0 -0.315225 -0.062025 -0.315225 -0.428925v-0.2377c0.403125 0 0.43415 0.036125 0.43415 0.3049h0.098175v-0.770075h-0.098175c0 0.268725 -0.031025 0.3049 -0.43415 0.3049v-0.57875h0.284175c0.367 0 0.4238 0.062 0.470325 0.23255l0.025875 0.09815h0.08265l-0.036125 -0.48575h-1.5194v0.098125c0.28935 0 0.335925 0.062025 0.335925 0.42895v0.661525c0 0.335675 -0.039525 0.420225 -0.267675 0.432275 -0.216875 -0.0331 -0.36575 -0.1514 -0.56945 -0.375425l-0.23775 -0.258375c0.320425 -0.056925 0.490975 -0.2584 0.490975 -0.48585 0 -0.284175 -0.242875 -0.501225 -0.69765 -0.501225H17.0475v0.098125c0.28935 0 0.335875 0.062025 0.335875 0.42895v0.661525c0 0.366925 -0.046475 0.4341 -0.335875 0.4341v0.098175h1.028425v-0.098175c-0.28935 0 -0.335925 -0.067175 -0.335925 -0.4341v-0.185975h0.087875l0.573625 0.71825h2.12395l0.031025 -0.4857 -0.077575 -0.00005Zm-2.738925 -0.392825v-0.68725h0.21185c0.23255 0 0.33595 0.1602 0.33595 0.346225 0 0.1809 -0.1034 0.34105 -0.33595 0.34105l-0.21185 -0.000025Zm3.787975 0.945725c-0.206725 0 -0.387625 -0.108475 -0.465125 -0.175725 -0.02585 0.0259 -0.072325 0.1034 -0.08265 0.175725h-0.098225v-0.713075h0.103375c0.041375 0.34105 0.279025 0.542575 0.583975 0.542575 0.16535 0 0.29975 -0.093 0.29975 -0.248 0 -0.13435 -0.11885 -0.23775 -0.33075 -0.335925l-0.294575 -0.139525c-0.20675 -0.09825 -0.361775 -0.2688 -0.361775 -0.49615 0 -0.24805 0.232575 -0.4599 0.553 -0.4599 0.17055 0 0.3152 0.062 0.4031 0.134325 0.025825 -0.02065 0.051675 -0.07755 0.0672 -0.1396h0.098175v0.609875h-0.108525c-0.0362 -0.242925 -0.17055 -0.44445 -0.444425 -0.44445 -0.1447 0 -0.279125 0.082675 -0.279125 0.211925 0 0.13435 0.10855 0.206675 0.35665 0.320375l0.284175 0.139525c0.2481 0.11885 0.346225 0.310175 0.346225 0.465175 0 0.325525 -0.284225 0.55285 -0.63045 0.55285Zm1.5917 0c-0.206775 0 -0.387675 -0.108475 -0.46515 -0.175725 -0.02585 0.0259 -0.072325 0.1034 -0.082625 0.175725h-0.098225v-0.713075h0.10335c0.04135 0.34105 0.27905 0.542575 0.583975 0.542575 0.165375 0 0.29975 -0.093 0.29975 -0.248 0 -0.13435 -0.11885 -0.23775 -0.330775 -0.335925l-0.294575 -0.139525c-0.206725 -0.09825 -0.361775 -0.2688 -0.361775 -0.49615 0 -0.24805 0.232575 -0.4599 0.553 -0.4599 0.17055 0 0.3152 0.062 0.4031 0.134325 0.025825 -0.02065 0.051675 -0.07755 0.067125 -0.1396h0.0982v0.609875h-0.108475c-0.036225 -0.242925 -0.17055 -0.44445 -0.444425 -0.44445 -0.1447 0 -0.279125 0.082675 -0.279125 0.211925 0 0.13435 0.10855 0.206675 0.35665 0.320375l0.284175 0.139525c0.2481 0.11885 0.346225 0.310175 0.346225 0.465175 0 0.325525 -0.284225 0.55285 -0.6304 0.55285Z" stroke-width="0.25"></path>
  <path fill="#464342" d="M0.62896 11.999925c0 0.905275 0.526095 1.6876 1.288975 2.05835L0.8269675 11.06915c-0.1269 0.28445 -0.1980075 0.5992 -0.1980075 0.930775Zm3.831015 -0.1154c0 -0.28265 -0.101525 -0.4784 -0.1886 -0.630775 -0.115925 -0.188375 -0.2246 -0.347925 -0.2246 -0.5363 0 -0.21025 0.15945 -0.40595 0.38405 -0.40595 0.01015 0 0.01975 0.00125 0.029625 0.001825 -0.4069 -0.372775 -0.949 -0.600375 -1.544425 -0.600375 -0.7989925 0 -1.5019475 0.40995 -1.9108925 1.03085 0.05366 0.001625 0.1042275 0.00275 0.14718 0.00275 0.2392225 0 0.60952 -0.029025 0.60952 -0.029025 0.1232875 -0.007275 0.137825 0.173825 0.0146675 0.1884 0 0 -0.1238975 0.014575 -0.261765 0.0218L2.3475925 13.405l0.5005075 -1.501075 -0.35633 -0.9763c-0.1231575 -0.007225 -0.2398325 -0.0218 -0.2398325 -0.0218 -0.1232425 -0.007225 -0.108795 -0.19565 0.01445 -0.188375 0 0 0.3776875 0.029025 0.6024375 0.029025 0.239175 0 0.6095 -0.029025 0.6095 -0.029025 0.123375 -0.007275 0.137875 0.1738 0.014675 0.188375 0 0 -0.12415 0.014575 -0.261775 0.0218l0.826525 2.45855 0.228125 -0.762325c0.09885 -0.316325 0.1741 -0.54355 0.1741 -0.739325Zm-1.503825 0.31545 -0.686195 1.993975c0.204885 0.06025 0.42157 0.093175 0.64607 0.093175 0.26635 0 0.52175 -0.046025 0.7595 -0.129625 -0.00615 -0.0098 -0.011725 -0.0202 -0.016275 -0.031525l-0.7031 -1.926Zm1.9667 -1.297325c0.009825 0.07285 0.0154 0.15105 0.0154 0.235175 0 0.232075 -0.04335 0.492975 -0.1739 0.8192l-0.6986 2.019825c0.679925 -0.3965 1.137275 -1.13315 1.137275 -1.976875 0.000025 -0.397625 -0.10155 -0.77155 -0.280175 -1.097325Zm-2.006825 -1.568675C1.44602 9.333975 0.25 10.529925 0.25 11.999925 0.25 13.470125 1.44602 14.666 2.916025 14.666c1.469975 0 2.666175 -1.195875 2.666175 -2.666075 -0.00005 -1.47 -1.1962 -2.66595 -2.666175 -2.66595Zm0 5.209825c-1.402595 0 -2.5437825 -1.141175 -2.5437825 -2.543875 0 -1.4026 1.1411425 -2.5437 2.5437825 -2.5437 1.402575 0 2.543675 1.1411 2.543675 2.5437 0 1.4027 -1.1411 2.543875 -2.543675 2.543875Z" stroke-width="0.25"></path>
</svg>